<svg width="53" height="52" fill="none" xmlns="http://www.w3.org/2000/svg"><path opacity=".25" d="M26.886 50.423c13.807 0 25-10.97 25-24.5 0-13.531-11.193-24.5-25-24.5s-25 10.969-25 24.5c0 13.53 11.193 24.5 25 24.5Z" stroke="#33A0FF" stroke-width="2"/><path fill-rule="evenodd" clip-rule="evenodd" d="M29.822 19.961a3.345 3.345 0 0 1 2.5 5.561c-.613.691-5.84 5.584-5.84 5.584s-5.238-4.893-5.85-5.595a3.3 3.3 0 0 1-.837-2.207 3.344 3.344 0 0 1 6.687 0 3.343 3.343 0 0 1 3.344-3.344l-.004.001Zm.004-2.23a5.543 5.543 0 0 0-3.344 1.115 5.573 5.573 0 0 0-7.519 8.141c.626.718 4.75 4.578 6 5.744a2.229 2.229 0 0 0 3.045 0c1.244-1.165 5.35-5.015 5.984-5.732a5.573 5.573 0 0 0-4.17-9.267l.004-.001Z" fill="#33A0FF"/></svg>